<svg width="27" height="27" viewBox="0 0 27 27" fill="none" xmlns="http://www.w3.org/2000/svg">
<circle cx="13.2958" cy="13.2958" r="13.2958" fill="white"/>
<circle cx="13.2958" cy="13.2953" r="10.8783" fill="#F761B6"/>
<path fill-rule="evenodd" clip-rule="evenodd" d="M18.9099 13.4707H14.3295V8.89035C14.3295 8.65319 14.1373 8.46094 13.9001 8.46094C13.663 8.46094 13.4707 8.65319 13.4707 8.89035V13.4707H8.89035C8.65319 13.4707 8.46094 13.663 8.46094 13.9001C8.46094 14.1373 8.65319 14.3295 8.89035 14.3295H13.4707V18.9099C13.4707 19.147 13.663 19.3393 13.9001 19.3393C14.1373 19.3393 14.3295 19.147 14.3295 18.9099V14.3295H18.9099C19.147 14.3295 19.3393 14.1373 19.3393 13.9001C19.3393 13.663 19.147 13.4707 18.9099 13.4707Z" fill="white"/>
</svg>
