<svg width="22" height="16" viewBox="0 0 22 16" fill="none" xmlns="http://www.w3.org/2000/svg">
<path d="M21.6902 0.0490888C21.4988 -0.0365492 21.2792 -0.00873111 21.1173 0.121539C20.7234 0.43854 19.8464 1.02111 18.3998 1.36082C18.227 1.40141 18.1211 1.56873 18.1635 1.73452C18.2058 1.90032 18.3802 2.00182 18.5531 1.96123C19.9418 1.63516 20.8588 1.09447 21.3555 0.730277V1.7651C21.3555 2.2798 21.0373 2.74458 20.5448 2.94912L17.8715 4.05965C17.7082 4.12748 17.6331 4.30947 17.7039 4.46612C17.7565 4.58275 17.8751 4.65244 17.9997 4.65244C18.0425 4.65244 18.0859 4.64424 18.1277 4.62689L20.6503 3.579V4.20636C20.6503 4.62417 20.4376 5.01782 20.0813 5.2594C20.0791 5.26089 20.0772 5.26266 20.075 5.26418C20.0014 5.31352 19.9223 5.356 19.8414 5.38963L18.4225 5.96919C18.2587 6.03608 18.1825 6.21762 18.2522 6.37468C18.3044 6.49225 18.4236 6.56272 18.5489 6.56272C18.591 6.56272 18.6338 6.55477 18.675 6.53791L19.945 6.01918V6.64762C19.945 7.16231 19.6268 7.62706 19.1344 7.83163L17.906 8.34192L17.7616 8.4039C18.1125 7.1783 17.788 5.81045 16.7858 4.84926C16.21 4.29699 15.494 3.95996 14.7467 3.83616C14.8252 3.38262 14.946 3.01843 15.1071 2.75188C15.3135 2.41023 15.5662 2.25115 15.9024 2.25115C16.2554 2.25115 16.6088 2.2369 16.9527 2.20883C17.13 2.19432 17.2615 2.04473 17.2464 1.8746C17.2313 1.70456 17.0753 1.57841 16.8979 1.59288C16.5721 1.6195 16.2372 1.63302 15.9024 1.63302C15.2364 1.63302 14.396 2.01258 14.1031 3.78176C13.1251 3.77945 12.1462 4.13519 11.4016 4.84935L11 5.23459L10.5983 4.84931C9.8792 4.15963 8.92315 3.77978 7.90621 3.77982C7.90298 3.77982 7.89976 3.78003 7.89654 3.78003C7.60341 2.01233 6.76337 1.63298 6.09752 1.63298C3.19456 1.63298 1.58421 0.686016 0.882664 0.12158C0.720801 -0.00873113 0.501316 -0.0364667 0.309891 0.0490888C0.118723 0.134562 0 0.313421 0 0.515853V1.7651C0 2.33642 0.265074 2.86612 0.705203 3.2228V4.2064C0.705203 4.76927 0.966024 5.30247 1.41041 5.66307V6.64766C1.41041 7.40892 1.88104 8.09634 2.60941 8.39895L3.83079 8.90631L4.59645 9.23473C4.76141 9.5134 4.96663 9.77596 5.21409 10.0133L6.31211 11.0664C6.43796 11.1871 6.64202 11.1871 6.76784 11.0664C6.89369 10.9457 6.89369 10.75 6.76784 10.6293L5.66981 9.57621C4.4367 8.39351 4.4367 6.46913 5.66981 5.28644C6.26716 4.71351 7.06136 4.398 7.90612 4.398C8.75093 4.398 9.54512 4.71351 10.1425 5.28644L10.7721 5.89031C10.8325 5.9483 10.9144 5.98086 10.9999 5.98086C11.0854 5.98086 11.1674 5.9483 11.2278 5.89031L11.8574 5.28644C12.4547 4.71351 13.2489 4.398 14.0937 4.398C14.9385 4.398 15.7327 4.71351 16.33 5.28644C17.5631 6.46913 17.5631 8.39351 16.33 9.57621L12.3654 13.3787C11.9512 13.776 11.5693 14.2096 11.2303 14.6677C11.1766 14.7402 11.0926 14.7819 10.9999 14.7819C10.9071 14.7819 10.8231 14.7402 10.7694 14.6677C10.4304 14.2096 10.0485 13.7759 9.63432 13.3787L8.02007 11.8304C8.01204 11.7736 7.98742 11.7182 7.94565 11.6713C7.82994 11.5416 7.62652 11.5264 7.49126 11.6373L7.44111 11.6785C7.37292 11.7345 7.33219 11.8153 7.32871 11.9014C7.32523 11.9874 7.35939 12.071 7.42285 12.1319L9.17855 13.8158C9.56725 14.1886 9.9257 14.5956 10.2438 15.0255C10.4174 15.26 10.7 15.4 10.9999 15.4C11.2997 15.4 11.5824 15.26 11.7559 15.0255C12.074 14.5956 12.4325 14.1886 12.8212 13.8158L16.7858 10.0133C17.0332 9.77596 17.2385 9.51344 17.4034 9.23473L18.1656 8.90775L19.3905 8.39895C20.1189 8.09638 20.5895 7.40897 20.5895 6.64766V5.66307C21.0339 5.30247 21.2947 4.76927 21.2947 4.2064V3.2228C21.7349 2.86616 22 2.33642 22 1.7651V0.515853C22 0.313421 21.8813 0.134562 21.6902 0.0490888ZM5.21413 4.84931C4.21197 5.81049 3.88743 7.17839 4.23844 8.40394L4.0905 8.34047L2.86559 7.83167C2.37316 7.6271 2.05494 7.16235 2.05494 6.64766V6.01922L3.32496 6.53796C3.36613 6.55477 3.40897 6.56277 3.45108 6.56277C3.57638 6.56277 3.69553 6.49225 3.74773 6.37472C3.81747 6.21766 3.74125 6.03612 3.57749 5.96923L2.16038 5.39046C2.07767 5.35609 1.99856 5.31356 1.92491 5.26427C1.92277 5.26274 1.92087 5.26097 1.91873 5.25949C1.56243 5.0179 1.34973 4.62425 1.34973 4.20644V3.57908L3.87234 4.62697C3.91407 4.64428 3.95751 4.65252 4.00026 4.65252C4.12483 4.65252 4.24351 4.58283 4.29614 4.4662C4.36687 4.30956 4.2918 4.12757 4.12852 4.05973L1.45518 2.9492C0.962715 2.74458 0.644531 2.27984 0.644531 1.7651V0.730772C1.48934 1.35389 3.20818 2.25115 6.09748 2.25115C6.68495 2.25115 7.07321 2.78349 7.25317 3.8341C6.48476 3.96082 5.77676 4.30968 5.21413 4.84931Z" fill="black"/>
<path d="M10.015 11.5851C10.193 11.7558 10.3571 11.9422 10.5028 12.1391C10.617 12.2934 10.8029 12.3854 11 12.3854C11.1972 12.3854 11.3831 12.2934 11.4972 12.1392C11.643 11.9422 11.8071 11.7558 11.9851 11.5851L13.8691 9.77818C14.2428 9.4198 14.4485 8.94331 14.4485 8.43649C14.4485 7.92967 14.2428 7.45318 13.8691 7.0948C13.4954 6.73643 12.9986 6.53906 12.4702 6.53906C11.9418 6.53906 11.445 6.73643 11.0713 7.0948L11 7.16321L10.9287 7.0948C10.555 6.73643 10.0582 6.53906 9.52978 6.53906C9.00135 6.53906 8.50454 6.73643 8.13089 7.0948C7.75723 7.45318 7.55145 7.92967 7.55145 8.43649C7.55145 8.94331 7.75723 9.4198 8.13089 9.77818L10.015 11.5851ZM8.58674 7.53185C8.84675 7.28248 9.1883 7.15777 9.52986 7.15777C9.87142 7.15777 10.213 7.28248 10.473 7.53185L10.7722 7.81881C10.898 7.93952 11.1021 7.93952 11.2279 7.81881L11.5271 7.53185C12.0471 7.03307 12.8933 7.03307 13.4133 7.53185C13.9334 8.03064 13.9334 8.84218 13.4133 9.34096L11.5294 11.1479C11.3373 11.3321 11.1595 11.5322 11 11.7433C10.8406 11.5322 10.6627 11.3321 10.4707 11.1479L8.58674 9.34096C8.06673 8.84222 8.06673 8.03064 8.58674 7.53185Z" fill="black"/>
</svg>
