<svg width="27" height="27" viewBox="0 0 27 27" fill="none" xmlns="http://www.w3.org/2000/svg">
<circle cx="13.7042" cy="13.7044" r="13.2958" fill="white"/>
<circle cx="13.7043" cy="13.704" r="10.8783" fill="#3C3C3C"/>
<path fill-rule="evenodd" clip-rule="evenodd" d="M17.5844 16.8736L14.2986 13.6825L17.4897 10.3967C17.6549 10.2266 17.651 9.9547 17.4808 9.78947C17.3107 9.62425 17.0389 9.62822 16.8736 9.79834L13.6825 13.0841L10.3967 9.89299C10.2266 9.72776 9.95473 9.73173 9.78951 9.90186C9.62428 10.072 9.62825 10.3438 9.79838 10.5091L13.0842 13.7002L9.89302 16.986C9.7278 17.1561 9.73177 17.428 9.90189 17.5932C10.072 17.7584 10.3439 17.7544 10.5091 17.5843L13.7002 14.2985L16.986 17.4897C17.1561 17.6549 17.428 17.6509 17.5932 17.4808C17.7585 17.3107 17.7545 17.0388 17.5844 16.8736Z" fill="white"/>
</svg>
