<svg width="279" height="39" viewBox="0 0 279 39" fill="none" xmlns="http://www.w3.org/2000/svg">
<g filter="url(#filter0_i_285_3538)">
<rect width="279" height="39" rx="19.5" fill="url(#paint0_linear_285_3538)"/>
<path d="M109.748 20.5215L106.408 26H103.049L107.111 19.7207C106.304 19.3952 105.686 18.8939 105.256 18.2168C104.826 17.5332 104.611 16.7292 104.611 15.8047C104.611 14.4961 105.074 13.4902 105.998 12.7871C106.929 12.0775 108.264 11.7227 110.002 11.7227H114.65V26H111.623V20.5215H109.748ZM111.623 14.2031H110.129C109.348 14.2031 108.742 14.3431 108.312 14.623C107.883 14.903 107.668 15.3685 107.668 16.0195C107.668 16.651 107.876 17.1491 108.293 17.5137C108.71 17.8783 109.348 18.0605 110.207 18.0605H111.623V14.2031ZM129.045 15.082V17.3184H124.484V26H121.506V15.082H129.045ZM133.352 20.5215C133.352 21.6022 133.527 22.4193 133.879 22.9727C134.237 23.526 134.816 23.8027 135.617 23.8027C136.411 23.8027 136.981 23.5293 137.326 22.9824C137.678 22.429 137.854 21.6087 137.854 20.5215C137.854 19.4408 137.678 18.6302 137.326 18.0898C136.975 17.5495 136.398 17.2793 135.598 17.2793C134.803 17.2793 134.23 17.5495 133.879 18.0898C133.527 18.6237 133.352 19.4342 133.352 20.5215ZM140.9 20.5215C140.9 22.2988 140.432 23.6888 139.494 24.6914C138.557 25.694 137.251 26.1953 135.578 26.1953C134.53 26.1953 133.605 25.9674 132.805 25.5117C132.004 25.0495 131.389 24.3887 130.959 23.5293C130.529 22.6699 130.314 21.6673 130.314 20.5215C130.314 18.7376 130.78 17.3509 131.711 16.3613C132.642 15.3717 133.951 14.877 135.637 14.877C136.685 14.877 137.609 15.1048 138.41 15.5605C139.211 16.0163 139.826 16.6706 140.256 17.5234C140.686 18.3763 140.9 19.3757 140.9 20.5215ZM152.297 15.082V17.3184H148.723V26H145.744V17.3184H142.16V15.082H152.297ZM156.613 20.5215C156.613 21.6022 156.789 22.4193 157.141 22.9727C157.499 23.526 158.078 23.8027 158.879 23.8027C159.673 23.8027 160.243 23.5293 160.588 22.9824C160.939 22.429 161.115 21.6087 161.115 20.5215C161.115 19.4408 160.939 18.6302 160.588 18.0898C160.236 17.5495 159.66 17.2793 158.859 17.2793C158.065 17.2793 157.492 17.5495 157.141 18.0898C156.789 18.6237 156.613 19.4342 156.613 20.5215ZM164.162 20.5215C164.162 22.2988 163.693 23.6888 162.756 24.6914C161.818 25.694 160.513 26.1953 158.84 26.1953C157.792 26.1953 156.867 25.9674 156.066 25.5117C155.266 25.0495 154.65 24.3887 154.221 23.5293C153.791 22.6699 153.576 21.6673 153.576 20.5215C153.576 18.7376 154.042 17.3509 154.973 16.3613C155.904 15.3717 157.212 14.877 158.898 14.877C159.947 14.877 160.871 15.1048 161.672 15.5605C162.473 16.0163 163.088 16.6706 163.518 17.5234C163.947 18.3763 164.162 19.3757 164.162 20.5215ZM176.701 17.9434C176.701 18.5293 176.516 19.0306 176.145 19.4473C175.78 19.8574 175.24 20.1211 174.523 20.2383V20.3164C175.298 20.4076 175.91 20.6745 176.359 21.1172C176.815 21.5534 177.043 22.0938 177.043 22.7383C177.043 23.7995 176.626 24.61 175.793 25.1699C174.96 25.7233 173.768 26 172.219 26H166.623V15.082H172.219C173.716 15.082 174.836 15.3262 175.578 15.8145C176.327 16.2962 176.701 17.0059 176.701 17.9434ZM173.957 22.582C173.957 22.1523 173.791 21.8431 173.459 21.6543C173.127 21.459 172.629 21.3613 171.965 21.3613H169.602V23.9395H172.023C172.655 23.9395 173.133 23.8223 173.459 23.5879C173.791 23.347 173.957 23.0117 173.957 22.582ZM173.684 18.1777C173.684 17.5137 173.156 17.1816 172.102 17.1816H169.602V19.3398H171.76C172.391 19.3398 172.87 19.2487 173.195 19.0664C173.521 18.8841 173.684 18.5879 173.684 18.1777Z" fill="#F1EAEF"/>
</g>
<defs>
<filter id="filter0_i_285_3538" x="0" y="0" width="279" height="43" filterUnits="userSpaceOnUse" color-interpolation-filters="sRGB">
<feFlood flood-opacity="0" result="BackgroundImageFix"/>
<feBlend mode="normal" in="SourceGraphic" in2="BackgroundImageFix" result="shape"/>
<feColorMatrix in="SourceAlpha" type="matrix" values="0 0 0 0 0 0 0 0 0 0 0 0 0 0 0 0 0 0 127 0" result="hardAlpha"/>
<feOffset dy="4"/>
<feGaussianBlur stdDeviation="2"/>
<feComposite in2="hardAlpha" operator="arithmetic" k2="-1" k3="1"/>
<feColorMatrix type="matrix" values="0 0 0 0 0 0 0 0 0 0 0 0 0 0 0 0 0 0 0.25 0"/>
<feBlend mode="normal" in2="shape" result="effect1_innerShadow_285_3538"/>
</filter>
<linearGradient id="paint0_linear_285_3538" x1="310.107" y1="54.5099" x2="68.3836" y2="-191.284" gradientUnits="userSpaceOnUse">
<stop stop-color="#9C4DFF"/>
<stop offset="1" stop-color="#FF40AC"/>
</linearGradient>
</defs>
</svg>
