<svg width="281" height="41" viewBox="0 0 281 41" fill="none" xmlns="http://www.w3.org/2000/svg">
<rect x="0.5" y="0.5" width="280" height="40" rx="20" fill="url(#paint0_linear_285_3541)" fill-opacity="0.15"/>
<rect x="0.5" y="0.5" width="280" height="40" rx="20" stroke="black" stroke-linejoin="round"/>
<path d="M79.1758 27L75.7383 15.7988H75.6504C75.7741 18.0775 75.8359 19.5977 75.8359 20.3594V27H73.1309V12.7227H77.252L80.6309 23.6406H80.6895L84.2734 12.7227H88.3945V27H85.5723V20.2422C85.5723 19.9232 85.5755 19.5553 85.582 19.1387C85.5951 18.722 85.6406 17.6152 85.7188 15.8184H85.6309L81.9492 27H79.1758ZM94.1367 21.5215C94.1367 22.6022 94.3125 23.4193 94.6641 23.9727C95.0221 24.526 95.6016 24.8027 96.4023 24.8027C97.1966 24.8027 97.7663 24.5293 98.1113 23.9824C98.4629 23.429 98.6387 22.6087 98.6387 21.5215C98.6387 20.4408 98.4629 19.6302 98.1113 19.0898C97.7598 18.5495 97.1836 18.2793 96.3828 18.2793C95.5885 18.2793 95.0156 18.5495 94.6641 19.0898C94.3125 19.6237 94.1367 20.4342 94.1367 21.5215ZM101.686 21.5215C101.686 23.2988 101.217 24.6888 100.279 25.6914C99.3418 26.694 98.0365 27.1953 96.3633 27.1953C95.3151 27.1953 94.3906 26.9674 93.5898 26.5117C92.7891 26.0495 92.1738 25.3887 91.7441 24.5293C91.3145 23.6699 91.0996 22.6673 91.0996 21.5215C91.0996 19.7376 91.5651 18.3509 92.4961 17.3613C93.4271 16.3717 94.7357 15.877 96.4219 15.877C97.4701 15.877 98.3945 16.1048 99.1953 16.5605C99.9961 17.0163 100.611 17.6706 101.041 18.5234C101.471 19.3763 101.686 20.3757 101.686 21.5215ZM109.732 21.3848V16.082H112.506V21.3848L116.393 16.082H119.469L115.445 21.3164L119.85 27H116.666L112.506 21.4629V27H109.732V21.4629L105.572 27H102.389L106.793 21.3164L102.77 16.082H105.846L109.732 21.3848ZM125.738 17.9961C125.107 17.9961 124.612 18.1979 124.254 18.6016C123.896 18.9987 123.691 19.5651 123.639 20.3008H127.818C127.805 19.5651 127.613 18.9987 127.242 18.6016C126.871 18.1979 126.37 17.9961 125.738 17.9961ZM126.158 27.1953C124.4 27.1953 123.027 26.7103 122.037 25.7402C121.048 24.7702 120.553 23.3965 120.553 21.6191C120.553 19.7897 121.008 18.377 121.92 17.3809C122.838 16.3783 124.104 15.877 125.719 15.877C127.262 15.877 128.463 16.3164 129.322 17.1953C130.182 18.0742 130.611 19.2884 130.611 20.8379V22.2832H123.57C123.603 23.1296 123.854 23.7904 124.322 24.2656C124.791 24.7409 125.449 24.9785 126.295 24.9785C126.952 24.9785 127.574 24.9102 128.16 24.7734C128.746 24.6367 129.358 24.4186 129.996 24.1191V26.4238C129.475 26.6842 128.919 26.8763 128.326 27C127.734 27.1302 127.011 27.1953 126.158 27.1953ZM142.066 16.082V18.3184H138.492V27H135.514V18.3184H131.93V16.082H142.066ZM157.525 16.082V27H154.537V18.3184H150.582V27H147.604V16.082H157.525ZM163.023 21.5215C163.023 22.6022 163.199 23.4193 163.551 23.9727C163.909 24.526 164.488 24.8027 165.289 24.8027C166.083 24.8027 166.653 24.5293 166.998 23.9824C167.35 23.429 167.525 22.6087 167.525 21.5215C167.525 20.4408 167.35 19.6302 166.998 19.0898C166.646 18.5495 166.07 18.2793 165.27 18.2793C164.475 18.2793 163.902 18.5495 163.551 19.0898C163.199 19.6237 163.023 20.4342 163.023 21.5215ZM170.572 21.5215C170.572 23.2988 170.104 24.6888 169.166 25.6914C168.229 26.694 166.923 27.1953 165.25 27.1953C164.202 27.1953 163.277 26.9674 162.477 26.5117C161.676 26.0495 161.061 25.3887 160.631 24.5293C160.201 23.6699 159.986 22.6673 159.986 21.5215C159.986 19.7376 160.452 18.3509 161.383 17.3613C162.314 16.3717 163.622 15.877 165.309 15.877C166.357 15.877 167.281 16.1048 168.082 16.5605C168.883 17.0163 169.498 17.6706 169.928 18.5234C170.357 19.3763 170.572 20.3757 170.572 21.5215ZM175.748 20.2812C176.874 20.2812 177.672 20.1901 178.141 20.0078C178.616 19.8255 178.854 19.5358 178.854 19.1387C178.854 18.7871 178.681 18.5234 178.336 18.3477C177.991 18.1719 177.421 18.084 176.627 18.084C176.126 18.084 175.556 18.1458 174.918 18.2695C174.286 18.3932 173.71 18.5625 173.189 18.7773L172.311 16.6973C173.085 16.4043 173.837 16.196 174.566 16.0723C175.296 15.9421 176.109 15.877 177.008 15.877C178.368 15.877 179.459 16.1374 180.279 16.6582C181.1 17.179 181.51 17.8854 181.51 18.7773C181.51 20.0078 180.784 20.8086 179.332 21.1797V21.2773C180.224 21.4987 180.859 21.8145 181.236 22.2246C181.62 22.6283 181.812 23.1589 181.812 23.8164C181.812 24.4805 181.598 25.0697 181.168 25.584C180.738 26.0983 180.117 26.4954 179.303 26.7754C178.489 27.0553 177.532 27.1953 176.432 27.1953C174.609 27.1953 173.209 26.9707 172.232 26.5215V24.0605C172.792 24.321 173.404 24.526 174.068 24.6758C174.739 24.8255 175.387 24.9004 176.012 24.9004C176.982 24.9004 177.708 24.793 178.189 24.5781C178.671 24.3568 178.912 24.0443 178.912 23.6406C178.912 23.1979 178.658 22.8724 178.15 22.6641C177.643 22.4492 176.861 22.3418 175.807 22.3418H174.654V20.2812H175.748ZM189.928 21.3848V16.082H192.701V21.3848L196.588 16.082H199.664L195.641 21.3164L200.045 27H196.861L192.701 21.4629V27H189.928V21.4629L185.768 27H182.584L186.988 21.3164L182.965 16.082H186.041L189.928 21.3848ZM205.934 17.9961C205.302 17.9961 204.807 18.1979 204.449 18.6016C204.091 18.9987 203.886 19.5651 203.834 20.3008H208.014C208.001 19.5651 207.809 18.9987 207.438 18.6016C207.066 18.1979 206.565 17.9961 205.934 17.9961ZM206.354 27.1953C204.596 27.1953 203.222 26.7103 202.232 25.7402C201.243 24.7702 200.748 23.3965 200.748 21.6191C200.748 19.7897 201.204 18.377 202.115 17.3809C203.033 16.3783 204.299 15.877 205.914 15.877C207.457 15.877 208.658 16.3164 209.518 17.1953C210.377 18.0742 210.807 19.2884 210.807 20.8379V22.2832H203.766C203.798 23.1296 204.049 23.7904 204.518 24.2656C204.986 24.7409 205.644 24.9785 206.49 24.9785C207.148 24.9785 207.77 24.9102 208.355 24.7734C208.941 24.6367 209.553 24.4186 210.191 24.1191V26.4238C209.671 26.6842 209.114 26.8763 208.521 27C207.929 27.1302 207.206 27.1953 206.354 27.1953Z" fill="#F1EAEF"/>
<defs>
<linearGradient id="paint0_linear_285_3541" x1="311.107" y1="55.5099" x2="69.3836" y2="-190.284" gradientUnits="userSpaceOnUse">
<stop stop-color="#9C4DFF"/>
</linearGradient>
</defs>
</svg>
