<svg width="20" height="20" viewBox="0 0 20 20" fill="none" xmlns="http://www.w3.org/2000/svg">
<path d="M8.55634 17.5C8.70262 17.7533 8.91302 17.9637 9.16637 18.11C9.41973 18.2563 9.70712 18.3333 9.99967 18.3333C10.2922 18.3333 10.5796 18.2563 10.833 18.11C11.0863 17.9637 11.2967 17.7533 11.443 17.5" stroke="white" stroke-width="1.5" stroke-linecap="round" stroke-linejoin="round"/>
<path d="M2.71852 12.7715C2.60966 12.8908 2.53781 13.0392 2.51173 13.1986C2.48565 13.358 2.50645 13.5215 2.57161 13.6693C2.63676 13.8171 2.74346 13.9428 2.87873 14.0311C3.014 14.1193 3.172 14.1664 3.33352 14.1665H16.6669C16.8283 14.1666 16.9864 14.1197 17.1217 14.0316C17.2571 13.9435 17.3639 13.818 17.4293 13.6703C17.4946 13.5226 17.5156 13.3591 17.4897 13.1997C17.4638 13.0402 17.3922 12.8918 17.2835 12.7723C16.1752 11.6298 15.0002 10.4157 15.0002 6.6665C15.0002 5.34042 14.4734 4.06865 13.5357 3.13097C12.598 2.19329 11.3263 1.6665 10.0002 1.6665C8.6741 1.6665 7.40233 2.19329 6.46465 3.13097C5.52697 4.06865 5.00018 5.34042 5.00018 6.6665C5.00018 10.4157 3.82435 11.6298 2.71852 12.7715Z" stroke="white" stroke-width="1.5" stroke-linecap="round" stroke-linejoin="round"/>
</svg>
