<svg width="311" height="148" viewBox="0 0 311 148" fill="none" xmlns="http://www.w3.org/2000/svg">
<g filter="url(#filter0_iii_285_3022)">
<path d="M295 144C301.627 144 307 138.627 307 132V18.847C307 12.24 301.659 6.8759 295.052 6.84714L174.136 6.32054C172.978 6.31551 171.827 6.14304 170.719 5.80847L168.033 4.99738C165.897 4.35249 163.624 4.31586 161.468 4.89159L157.668 5.90656C156.658 6.17633 155.617 6.31294 154.571 6.31294L16 6.31294C9.37262 6.31294 4 11.6855 4 18.313V132C4 138.627 9.37259 144 16 144L295 144Z" fill="url(#paint0_linear_285_3022)"/>
</g>
<path d="M309 18.8467C309 11.1386 302.769 4.88024 295.061 4.84668L174.145 4.32031L173.783 4.3125C172.941 4.2784 172.106 4.13748 171.298 3.89355L168.611 3.08301L168.142 2.9502C165.945 2.36956 163.639 2.33218 161.425 2.8418L160.952 2.95898L157.151 3.97461C156.31 4.19935 155.442 4.3125 154.571 4.3125L16 4.3125C8.26819 4.31252 2.00024 10.5807 2 18.3125V132C2 139.732 8.26802 146 16 146L295 146L295.361 145.995C302.926 145.803 309 139.611 309 132V18.8467Z" stroke="#AE4983" stroke-width="4"/>
<defs>
<filter id="filter0_iii_285_3022" x="0" y="-0.714648" width="311" height="148.715" filterUnits="userSpaceOnUse" color-interpolation-filters="sRGB">
<feFlood flood-opacity="0" result="BackgroundImageFix"/>
<feBlend mode="normal" in="SourceGraphic" in2="BackgroundImageFix" result="shape"/>
<feColorMatrix in="SourceAlpha" type="matrix" values="0 0 0 0 0 0 0 0 0 0 0 0 0 0 0 0 0 0 127 0" result="hardAlpha"/>
<feOffset dy="-16"/>
<feGaussianBlur stdDeviation="0.6"/>
<feComposite in2="hardAlpha" operator="arithmetic" k2="-1" k3="1"/>
<feColorMatrix type="matrix" values="0 0 0 0 0.419608 0 0 0 0 0.2 0 0 0 0 0.32549 0 0 0 1 0"/>
<feBlend mode="normal" in2="shape" result="effect1_innerShadow_285_3022"/>
<feColorMatrix in="SourceAlpha" type="matrix" values="0 0 0 0 0 0 0 0 0 0 0 0 0 0 0 0 0 0 127 0" result="hardAlpha"/>
<feOffset/>
<feGaussianBlur stdDeviation="0.55"/>
<feComposite in2="hardAlpha" operator="arithmetic" k2="-1" k3="1"/>
<feColorMatrix type="matrix" values="0 0 0 0 0.968627 0 0 0 0 0.380392 0 0 0 0 0.713726 0 0 0 1 0"/>
<feBlend mode="normal" in2="effect1_innerShadow_285_3022" result="effect2_innerShadow_285_3022"/>
<feColorMatrix in="SourceAlpha" type="matrix" values="0 0 0 0 0 0 0 0 0 0 0 0 0 0 0 0 0 0 127 0" result="hardAlpha"/>
<feOffset dy="-14"/>
<feComposite in2="hardAlpha" operator="arithmetic" k2="-1" k3="1"/>
<feColorMatrix type="matrix" values="0 0 0 0 0.419608 0 0 0 0 0.2 0 0 0 0 0.32549 0 0 0 1 0"/>
<feBlend mode="normal" in2="effect2_innerShadow_285_3022" result="effect3_innerShadow_285_3022"/>
</filter>
<linearGradient id="paint0_linear_285_3022" x1="24.0564" y1="26.5949" x2="268.379" y2="26.5949" gradientUnits="userSpaceOnUse">
<stop offset="1" stop-color="#6B3353"/>
</linearGradient>
</defs>
</svg>
