<svg width="33" height="33" viewBox="0 0 33 33" fill="none" xmlns="http://www.w3.org/2000/svg">
<g filter="url(#filter0_d_285_2856)">
<path d="M29 12.5C29 10.7612 28.035 9.19438 26.555 8.3875C27.115 6.73 26.7119 4.83312 25.4394 3.56062C24.1675 2.28812 22.2706 1.88625 20.6125 2.445C19.8056 0.965 18.2388 0 16.5 0C14.7612 0 13.1944 0.965 12.3875 2.445C10.7288 1.88438 8.8325 2.28812 7.56062 3.56062C6.28812 4.83312 5.88438 6.73 6.445 8.3875C4.965 9.19438 4 10.7612 4 12.5C4 14.2388 4.965 15.8056 6.445 16.6125C5.885 18.27 6.28812 20.1669 7.56062 21.4394C8.83312 22.7119 10.7312 23.1156 12.3875 22.555C13.1944 24.035 14.7612 25 16.5 25C18.2388 25 19.8056 24.035 20.6125 22.555C22.2706 23.1156 24.1669 22.7113 25.4394 21.4394C26.7119 20.1669 27.1156 18.27 26.555 16.6125C28.035 15.8056 29 14.2388 29 12.5ZM16.5 20C15.8094 20 15.25 19.4406 15.25 18.75C15.25 18.0594 15.8094 17.5 16.5 17.5C17.1906 17.5 17.75 18.0594 17.75 18.75C17.75 19.4406 17.1906 20 16.5 20ZM18.3687 13.1106C17.7487 13.5938 17.4375 13.8363 17.4375 14.6875C17.4375 15.2056 17.0181 15.625 16.5 15.625C15.9819 15.625 15.5625 15.2056 15.5625 14.6875C15.5625 12.92 16.5181 12.1756 17.2162 11.6319C17.8888 11.1075 18.375 10.7288 18.375 9.375C18.375 8.34125 17.5337 7.5 16.5 7.5C15.4663 7.5 14.625 8.34125 14.625 9.375V9.6875C14.625 10.2056 14.2056 10.625 13.6875 10.625C13.1694 10.625 12.75 10.2056 12.75 9.6875V9.375C12.75 7.30688 14.4319 5.625 16.5 5.625C18.5681 5.625 20.25 7.30688 20.25 9.375C20.25 11.6444 19.1625 12.4919 18.3687 13.1106Z" fill="#FF6366"/>
</g>
<defs>
<filter id="filter0_d_285_2856" x="0" y="0" width="33" height="33" filterUnits="userSpaceOnUse" color-interpolation-filters="sRGB">
<feFlood flood-opacity="0" result="BackgroundImageFix"/>
<feColorMatrix in="SourceAlpha" type="matrix" values="0 0 0 0 0 0 0 0 0 0 0 0 0 0 0 0 0 0 127 0" result="hardAlpha"/>
<feOffset dy="4"/>
<feGaussianBlur stdDeviation="2"/>
<feComposite in2="hardAlpha" operator="out"/>
<feColorMatrix type="matrix" values="0 0 0 0 0 0 0 0 0 0 0 0 0 0 0 0 0 0 0.25 0"/>
<feBlend mode="normal" in2="BackgroundImageFix" result="effect1_dropShadow_285_2856"/>
<feBlend mode="normal" in="SourceGraphic" in2="effect1_dropShadow_285_2856" result="shape"/>
</filter>
</defs>
</svg>
