<svg width="33" height="33" viewBox="0 0 33 33" fill="none" xmlns="http://www.w3.org/2000/svg">
<g filter="url(#filter0_d_285_3176)">
<path d="M28.1522 13.1538C28.8194 12.4788 29.1197 11.5153 28.9562 10.5762C28.7928 9.63701 28.1846 8.8344 27.3292 8.43182L26.102 7.85294C25.7257 7.67601 25.497 7.27535 25.5337 6.8561L25.6522 5.49257C25.7346 4.54189 25.3531 3.60851 24.6309 2.99502C23.9086 2.38217 22.9317 2.16485 22.0219 2.40973L20.7142 2.76552C20.3138 2.87257 19.8836 2.71616 19.6453 2.37127L18.8692 1.24942C18.3294 0.467332 17.4431 0 16.5003 0C15.5576 0 14.6712 0.467332 14.1308 1.24814L13.3547 2.36999C13.1164 2.71487 12.6875 2.87129 12.2852 2.76424L10.9781 2.40845C10.0671 2.16293 9.09202 2.38024 8.36975 2.99373C7.64748 3.60722 7.26608 4.54061 7.34844 5.49129L7.46692 6.85546C7.50303 7.27407 7.27495 7.67473 6.89797 7.85294L5.67076 8.43118C4.81544 8.83376 4.20722 9.63573 4.04376 10.5755C3.8803 11.5153 4.18061 12.4788 4.84775 13.1532L5.80507 14.1212C6.09905 14.418 6.17824 14.8738 6.00274 15.2546L5.43 16.4963C5.03149 17.3611 5.07457 18.3708 5.54658 19.1971C6.01858 20.0234 6.86059 20.5664 7.80017 20.6491L9.14904 20.7683C9.56276 20.8049 9.91249 21.1023 10.0202 21.5081L10.3699 22.8306C10.6138 23.7524 11.288 24.4973 12.1743 24.8236C13.06 25.1499 14.0497 25.0185 14.8239 24.4704L15.932 23.6838C16.2722 23.4441 16.7297 23.4415 17.0699 23.6838L18.1786 24.4704C18.6709 24.8198 19.2525 24.9999 19.8386 24.9999C20.1718 24.9999 20.5064 24.9416 20.8276 24.8236C21.7133 24.4967 22.3881 23.7518 22.632 22.8306L22.9817 21.5081C23.0888 21.1017 23.4391 20.8042 23.8529 20.7683L25.2005 20.6491C26.14 20.5664 26.9827 20.0234 27.4541 19.1971C27.9254 18.3708 27.9691 17.3611 27.57 16.4957L26.9973 15.2546C26.8218 14.8738 26.901 14.418 27.1949 14.1212L28.1522 13.1538ZM21.7532 10.6165L15.4176 17.0271C15.2319 17.2149 14.9886 17.3085 14.7453 17.3085C14.502 17.3085 14.2588 17.2149 14.0731 17.0271L10.9053 13.8218C10.534 13.4462 10.534 12.8378 10.9053 12.4621C11.2766 12.0865 11.8778 12.0865 12.2491 12.4621L14.7453 14.9873L20.4088 9.25686C20.7801 8.8812 21.3813 8.8812 21.7526 9.25686C22.1239 9.63252 22.1239 10.2409 21.7532 10.6165Z" fill="#FF63BB"/>
</g>
<defs>
<filter id="filter0_d_285_3176" x="0" y="0" width="33" height="33" filterUnits="userSpaceOnUse" color-interpolation-filters="sRGB">
<feFlood flood-opacity="0" result="BackgroundImageFix"/>
<feColorMatrix in="SourceAlpha" type="matrix" values="0 0 0 0 0 0 0 0 0 0 0 0 0 0 0 0 0 0 127 0" result="hardAlpha"/>
<feOffset dy="4"/>
<feGaussianBlur stdDeviation="2"/>
<feComposite in2="hardAlpha" operator="out"/>
<feColorMatrix type="matrix" values="0 0 0 0 0 0 0 0 0 0 0 0 0 0 0 0 0 0 0.25 0"/>
<feBlend mode="normal" in2="BackgroundImageFix" result="effect1_dropShadow_285_3176"/>
<feBlend mode="normal" in="SourceGraphic" in2="effect1_dropShadow_285_3176" result="shape"/>
</filter>
</defs>
</svg>
