<svg width="108" height="107" viewBox="0 0 108 107" fill="none" xmlns="http://www.w3.org/2000/svg">
<g filter="url(#filter0_d_285_3545)">
<path d="M100.609 52.0892C103.278 49.4161 104.479 45.6006 103.825 41.8816C103.171 38.1625 100.738 34.9842 97.317 33.39L92.4081 31.0977C90.9027 30.397 89.9879 28.8104 90.1349 27.1502L90.6088 21.7506C90.9382 17.9859 89.4126 14.2897 86.5235 11.8603C83.6345 9.43338 79.7266 8.5728 76.0874 9.54254L70.8567 10.9515C69.255 11.3754 67.5343 10.756 66.5814 9.39022L63.4769 4.9477C61.3177 1.85063 57.7723 0 54.0013 0C50.2303 0 46.6848 1.85063 44.5231 4.94262L41.4186 9.38515C40.4657 10.7509 38.75 11.3703 37.1408 10.9464L31.9126 9.53746C28.2683 8.56518 24.3681 9.42576 21.479 11.8552C18.5899 14.2846 17.0643 17.9808 17.3938 21.7455L17.8677 27.1476C18.0121 28.8053 17.0998 30.3919 15.5919 31.0977L10.683 33.3875C7.26176 34.9817 4.82886 38.1575 4.17502 41.879C3.52118 45.6006 4.72242 49.4161 7.39101 52.0867L11.2203 55.9199C12.3962 57.0953 12.713 58.9002 12.011 60.4081L9.72 65.3254C8.12595 68.7499 8.29828 72.7482 10.1863 76.0204C12.0743 79.2927 15.4424 81.4429 19.2007 81.7703L24.5962 82.2425C26.251 82.3872 27.6499 83.5651 28.0808 85.172L29.4797 90.4091C30.4554 94.0596 33.1518 97.0095 36.6973 98.3016C40.2402 99.5937 44.1987 99.0733 47.2956 96.9028L51.728 93.788C53.0889 92.8386 54.9187 92.8284 56.2796 93.788L60.7145 96.9028C62.6837 98.2864 65.0101 98.9997 67.3543 98.9997C68.6873 98.9997 70.0254 98.7687 71.3103 98.3016C74.8532 97.0069 77.5522 94.0571 78.5279 90.4091L79.9268 85.172C80.3551 83.5626 81.7566 82.3847 83.4114 82.2425L88.8018 81.7703C92.5602 81.4429 95.9307 79.2927 97.8162 76.0204C99.7017 72.7482 99.8766 68.7499 98.28 65.3229L95.989 60.4081C95.287 58.9002 95.6038 57.0953 96.7797 55.9199L100.609 52.0892ZM75.0129 42.0415L49.6702 67.4273C48.9277 68.1711 47.9545 68.5418 46.9813 68.5418C46.0082 68.5418 45.035 68.1711 44.2925 67.4273L31.6211 54.7344C30.1361 53.2468 30.1361 50.8377 31.6211 49.3501C33.1062 47.8625 35.5112 47.8625 36.9963 49.3501L46.9813 59.3496L69.6352 36.6572C71.1202 35.1695 73.5253 35.1695 75.0104 36.6572C76.4954 38.1448 76.4954 40.5539 75.0129 42.0415Z" fill="#FF63BB"/>
</g>
<defs>
<filter id="filter0_d_285_3545" x="0" y="0" width="108" height="107" filterUnits="userSpaceOnUse" color-interpolation-filters="sRGB">
<feFlood flood-opacity="0" result="BackgroundImageFix"/>
<feColorMatrix in="SourceAlpha" type="matrix" values="0 0 0 0 0 0 0 0 0 0 0 0 0 0 0 0 0 0 127 0" result="hardAlpha"/>
<feOffset dy="4"/>
<feGaussianBlur stdDeviation="2"/>
<feComposite in2="hardAlpha" operator="out"/>
<feColorMatrix type="matrix" values="0 0 0 0 0 0 0 0 0 0 0 0 0 0 0 0 0 0 0.25 0"/>
<feBlend mode="normal" in2="BackgroundImageFix" result="effect1_dropShadow_285_3545"/>
<feBlend mode="normal" in="SourceGraphic" in2="effect1_dropShadow_285_3545" result="shape"/>
</filter>
</defs>
</svg>
