<svg width="41" height="42" viewBox="0 0 41 42" fill="none" xmlns="http://www.w3.org/2000/svg">
<path d="M37.0903 31.799C39.1819 28.4902 40.2819 24.6566 40.2819 20.6797C40.2819 9.27399 31.2494 0 20.1409 0C19.5367 0 18.917 0.0317539 18.3128 0.079524C11.8416 0.591119 6.5 4.28419 3.2535 9.36943C1.13096 12.6941 0 16.6074 0 20.6797C0 32.0853 9.03247 41.3594 20.1409 41.3594C23.2551 41.3594 26.3382 40.6117 29.096 39.1959L38.3925 41.3118C38.9535 41.4558 39.5557 41.2456 39.9256 40.7867C40.2974 40.3254 40.3904 39.6891 40.1579 39.1323L37.0903 31.799ZM32.5354 25.448C32.5354 28.0795 30.4505 30.2202 27.8875 30.2202C25.3245 30.2202 23.2396 28.0795 23.2396 25.448V22.2665C23.2396 20.1954 24.5386 18.4461 26.3382 17.7874V17.4942C26.3382 13.985 23.5588 11.1312 20.1409 11.1312C16.7231 11.1312 13.9437 13.985 13.9437 17.4942V17.7874C15.7432 18.4461 17.0423 20.1954 17.0423 22.2665V25.448C17.0423 26.8091 16.4779 28.0312 15.5847 28.9013L17.5114 30.2202H20.1409C20.9973 30.2202 21.6903 30.9317 21.6903 31.8109C21.6903 32.6902 20.9973 33.4017 20.1409 33.4017H17.0423C16.7367 33.4017 16.4372 33.3085 16.183 33.1345L11.8416 30.1628C9.5414 29.8783 7.74652 27.8852 7.74652 25.448V22.2665C7.74652 20.1954 9.04561 18.4461 10.8451 17.7874V17.4942C10.8451 12.2311 15.0149 7.94975 20.1409 7.94975C25.267 7.94975 29.4368 12.2311 29.4368 17.4942V17.7874C31.2363 18.4461 32.5354 20.1954 32.5354 22.2665V25.448Z" fill="white" fill-opacity="0.75"/>
<path d="M27.8874 20.6758C27.0326 20.6758 26.3381 21.3888 26.3381 22.2665V25.448C26.3381 26.3257 27.0326 27.0388 27.8874 27.0388C28.7423 27.0388 29.4367 26.3257 29.4367 25.448V22.2665C29.4367 21.3888 28.7423 20.6758 27.8874 20.6758Z" fill="white" fill-opacity="0.75"/>
<path d="M12.3944 20.6758C11.5396 20.6758 10.8451 21.3888 10.8451 22.2665V25.448C10.8451 26.3257 11.5396 27.0388 12.3944 27.0388C13.2492 27.0388 13.9437 26.3257 13.9437 25.448V22.2665C13.9437 21.3888 13.2492 20.6758 12.3944 20.6758Z" fill="white" fill-opacity="0.75"/>
</svg>
