<svg width="53" height="52" viewBox="0 0 53 52" fill="none" xmlns="http://www.w3.org/2000/svg">
<circle cx="26.5" cy="26" r="25.5" fill="white" stroke="#E2E8F0"/>
<g clip-path="url(#clip0_294_5396)">
<path d="M38.4873 26.2245C38.4873 25.2412 38.4057 24.5237 38.229 23.7796H26.739V28.2176H33.4833C33.3474 29.3205 32.6132 30.9814 30.9814 32.0975L30.9585 32.2461L34.5915 34.9963L34.8431 35.0209C37.1547 32.9347 38.4873 29.8653 38.4873 26.2245Z" fill="#4285F4"/>
<path d="M26.7391 37.9176C30.0433 37.9176 32.8172 36.8545 34.8433 35.0209L30.9815 32.0976C29.9481 32.8018 28.5612 33.2934 26.7391 33.2934C23.5029 33.2934 20.7562 31.2074 19.7771 28.324L19.6336 28.3359L15.856 31.1927L15.8066 31.3269C17.8191 35.2334 21.9527 37.9176 26.7391 37.9176Z" fill="#34A853"/>
<path d="M19.7771 28.324C19.5188 27.5799 19.3693 26.7826 19.3693 25.9588C19.3693 25.1349 19.5188 24.3377 19.7635 23.5936L19.7567 23.4351L15.9318 20.5324L15.8067 20.5906C14.9773 22.2117 14.5013 24.0321 14.5013 25.9588C14.5013 27.8855 14.9773 29.7058 15.8067 31.3269L19.7771 28.324Z" fill="#FBBC05"/>
<path d="M26.7391 18.624C29.0371 18.624 30.5871 19.594 31.471 20.4046L34.9248 17.1093C32.8036 15.1826 30.0433 14 26.7391 14C21.9527 14 17.8191 16.6841 15.8066 20.5906L19.7635 23.5936C20.7562 20.7102 23.5029 18.624 26.7391 18.624Z" fill="#EB4335"/>
</g>
<defs>
<clipPath id="clip0_294_5396">
<rect width="24" height="24" fill="white" transform="translate(14.5 14)"/>
</clipPath>
</defs>
</svg>
