<svg width="9" height="9" viewBox="0 0 9 9" fill="none" xmlns="http://www.w3.org/2000/svg">
<path d="M5.62545 7.18329C5.62545 7.31003 5.60644 7.42977 5.57899 7.54601C6.15577 7.46183 6.71062 7.31798 7.21406 7.10356L6.96285 6.25732C6.52421 6.44467 6.03562 6.56832 5.53027 6.6432C5.59057 6.809 5.62545 6.99096 5.62545 7.18329Z" fill="#F1EAEF"/>
<path d="M3.37535 7.18329C3.37535 6.99096 3.41011 6.809 3.47097 6.6432C2.9654 6.56818 2.4767 6.444 2.03783 6.25732L1.78662 7.10356C2.29051 7.31798 2.84547 7.46183 3.42203 7.54601C3.39458 7.42977 3.37535 7.31003 3.37535 7.18329Z" fill="#F1EAEF"/>
<path d="M4.5 0C2.01431 0 0 1.70809 0 3.81621V6.28542C0 7.20142 1.10104 7.98799 2.67784 8.33669C2.52518 7.99203 2.43742 7.59982 2.43742 7.18324C2.43742 6.59237 2.61214 6.04998 2.90239 5.62437C2.0439 5.38706 1.38544 4.97545 1.03387 4.5225C1.60178 3.46212 2.95931 2.69373 4.5 2.69373C6.04058 2.69373 7.39822 3.46212 7.96624 4.5225C7.61467 4.97545 6.95587 5.38706 6.0975 5.62437C6.38786 6.04998 6.56257 6.5925 6.56257 7.18324C6.56257 7.59996 6.47516 7.99216 6.32239 8.33669C7.89919 7.98799 9 7.20169 9 6.28542V3.81607C9 1.70796 6.98625 0 4.5 0ZM1.82194 6.15787C1.7433 6.45068 1.69976 6.76153 1.69166 7.0833C1.0692 6.79103 0.749925 6.45728 0.749925 6.28542V5.42841C1.03883 5.71017 1.40366 5.95611 1.82194 6.15787ZM4.5 1.79578C2.9547 1.79578 1.5921 2.45655 0.781762 3.46279C1.01464 2.0405 2.62091 0.897955 4.5 0.897955C6.37897 0.897955 7.98514 2.04037 8.21779 3.46252C7.40779 2.45668 6.04575 1.79578 4.5 1.79578ZM8.24996 6.28542C8.24996 6.45714 7.93069 6.79103 7.30811 7.0833C7.30046 6.76153 7.25647 6.45121 7.17817 6.15787C7.59634 5.95611 7.96106 5.71071 8.24996 5.42841V6.28542Z" fill="#F1EAEF"/>
<path d="M4.49959 5.38818C3.67102 5.38818 2.99951 6.19186 2.99951 7.18382C2.99951 8.17606 3.67102 8.97973 4.49959 8.97973C5.32826 8.97973 5.99955 8.17606 5.99955 7.18382C5.99955 6.19186 5.32826 5.38818 4.49959 5.38818ZM4.49959 8.08191C4.08536 8.08191 3.74966 7.68028 3.74966 7.18382C3.74966 6.68764 4.08536 6.286 4.49959 6.286C4.91415 6.286 5.24963 6.68764 5.24963 7.18382C5.24963 7.68028 4.91415 8.08191 4.49959 8.08191Z" fill="#F1EAEF"/>
</svg>
