<svg width="8" height="11" viewBox="0 0 8 11" fill="none" xmlns="http://www.w3.org/2000/svg">
<path d="M7.46767 4.38881C7.46673 4.38713 7.46564 4.38553 7.46468 4.38388C6.92111 3.46993 6.00667 2.78994 4.92308 2.5399V2.13571C4.92308 1.74539 4.66583 1.4126 4.30769 1.28901V0.299399C4.30769 0.134051 4.16993 0 4 0C3.83007 0 3.69231 0.134051 3.69231 0.299399V1.28901C3.33417 1.4126 3.07692 1.74539 3.07692 2.13571V2.5399C1.99333 2.78992 1.07889 3.46991 0.535344 4.38386C0.534379 4.38551 0.533272 4.38711 0.532349 4.38879C0.193826 4.95992 0 5.62199 0 6.32729C0 7.0326 0.193826 7.69467 0.532328 8.26578C0.533272 8.26746 0.534359 8.26905 0.535323 8.27071C1.22759 9.43467 2.52133 10.2195 4 10.2195C5.47867 10.2195 6.77241 9.43467 7.46466 8.27071C7.46562 8.26905 7.46673 8.26746 7.46765 8.26578C7.80617 7.69467 8 7.0326 8 6.32729C8 5.62199 7.80617 4.95992 7.46767 4.38881ZM6.60894 4.2315H5.82476C5.75385 4.02665 5.6721 3.83326 5.58004 3.6541C5.5192 3.5357 5.45473 3.42548 5.38712 3.32337C5.86275 3.53215 6.28029 3.8448 6.60894 4.2315ZM5.5318 6.02789H4.30769V4.8303H5.36277C5.45582 5.20201 5.51329 5.6066 5.5318 6.02789ZM5.02962 3.92188C5.08012 4.02017 5.1271 4.12358 5.17048 4.2315H4.30769V3.10878C4.56857 3.23486 4.82115 3.51618 5.02962 3.92188ZM2.6129 3.32337C2.54529 3.42546 2.48082 3.5357 2.41998 3.6541C2.32792 3.83326 2.24615 4.02665 2.17526 4.2315H1.39108C1.71971 3.8448 2.13725 3.53215 2.6129 3.32337ZM0.985682 4.8303H2.0063C1.92156 5.20822 1.86929 5.61169 1.85233 6.02789H0.629518C0.669333 5.60005 0.793354 5.19549 0.985682 4.8303ZM0.985682 7.82429C0.793354 7.4591 0.669333 7.05453 0.629518 6.62669H1.85233C1.86929 7.0429 1.92156 7.44637 2.0063 7.82429H0.985682ZM1.39106 8.42308H2.17524C2.24615 8.62793 2.3279 8.82132 2.41996 9.00048C2.4808 9.11889 2.54527 9.2291 2.61288 9.33122C2.13725 9.12244 1.71971 8.80979 1.39106 8.42308ZM3.69231 9.54581C3.43143 9.41972 3.17885 9.13841 2.97038 8.7327C2.91988 8.63442 2.8729 8.53101 2.82952 8.42308H3.69231V9.54581ZM3.69231 7.82429H2.63723C2.54418 7.45257 2.48671 7.04799 2.46821 6.62669H3.69231V7.82429ZM3.69231 6.02789H2.46821C2.48671 5.6066 2.54418 5.20201 2.63723 4.8303H3.69231V6.02789ZM3.69231 4.2315H2.82952C2.8729 4.12358 2.9199 4.02017 2.97038 3.92188C3.17885 3.51618 3.43143 3.23488 3.69231 3.10878V4.2315ZM3.69231 2.44651V2.13571C3.69231 1.97062 3.83034 1.83631 4 1.83631C4.16966 1.83631 4.30769 1.97062 4.30769 2.13571V2.44651C4.20613 2.43896 4.10353 2.43511 4 2.43511C3.89647 2.43511 3.79387 2.43896 3.69231 2.44651ZM5.02962 8.7327C4.82115 9.13841 4.56857 9.4197 4.30769 9.54581V8.42308H5.17048C5.1271 8.53101 5.0801 8.63442 5.02962 8.7327ZM4.30769 7.82429V6.62669H5.5318C5.51329 7.04799 5.45582 7.45257 5.36277 7.82429H4.30769ZM5.3871 9.33122C5.45471 9.22913 5.51918 9.11889 5.58002 9.00048C5.67208 8.82132 5.75385 8.62793 5.82474 8.42308H6.60892C6.28029 8.80979 5.86275 9.12244 5.3871 9.33122ZM7.01432 7.82429H5.9937C6.07844 7.44637 6.13071 7.0429 6.14767 6.62669H7.37048C7.33067 7.05453 7.20665 7.4591 7.01432 7.82429ZM6.14767 6.02789C6.13071 5.61169 6.07844 5.20822 5.9937 4.8303H7.01432C7.20665 5.19549 7.33067 5.60005 7.37048 6.02789H6.14767Z" fill="white"/>
</svg>
