<svg width="9" height="11" viewBox="0 0 9 11" fill="none" xmlns="http://www.w3.org/2000/svg">
<path d="M6.27083 1.29851C5.35688 0.870487 4.51745 0.865723 4.48178 0.865723C4.44867 0.865723 3.65891 0.870487 2.77745 1.26039C2.68955 1.29931 2.64306 1.42001 2.67427 1.5296C2.69911 1.61616 2.76407 1.67016 2.83413 1.67016C2.8526 1.67016 2.87171 1.66618 2.89081 1.65824C3.71496 1.29375 4.4735 1.28819 4.48178 1.28819C4.4907 1.28819 5.29765 1.29454 6.15173 1.69398C6.17147 1.70351 6.19122 1.70748 6.21096 1.70748C6.27911 1.70748 6.34407 1.65507 6.36955 1.5701C6.40267 1.4613 6.35808 1.33901 6.27083 1.29851Z" fill="#F1EAEF"/>
<path d="M8.5461 5.31157C8.5461 4.88116 8.50661 4.47299 8.42891 4.09817C8.40534 3.98541 8.31363 3.91791 8.22255 3.9465C8.13212 3.97588 8.07734 4.09103 8.10091 4.20379C8.1716 4.54446 8.20727 4.9169 8.20727 5.31157C8.20727 5.96671 7.8729 6.68617 7.73087 6.96252C7.63979 7.13485 7.64234 7.35481 7.73596 7.52317L7.91557 7.85034C7.92067 7.85987 7.9264 7.8686 7.9334 7.87734C8.15759 8.16798 8.10218 8.32045 7.9334 8.57695C7.65062 9.00894 7.53216 8.91842 7.29651 8.73815C7.18569 8.65239 7.04748 8.63889 6.9271 8.70162C6.80737 8.76436 6.71884 8.89539 6.69082 9.05103C6.64241 9.30912 6.57936 9.73635 6.55643 10.3033C6.54942 10.4566 6.45071 10.5773 6.33097 10.5773H5.70808V9.39488C5.70808 9.27815 5.63229 9.18365 5.53867 9.18365C5.44504 9.18365 5.36925 9.27815 5.36925 9.39488V10.5773H4.65274V9.39488C4.65274 9.27815 4.57695 9.18365 4.48333 9.18365C4.3897 9.18365 4.31391 9.27815 4.31391 9.39488V10.5773H3.59231V9.39488C3.59231 9.27815 3.51652 9.18365 3.42289 9.18365C3.32927 9.18365 3.25348 9.27815 3.25348 9.39488V10.5773H2.63569C2.51595 10.5773 2.41723 10.4574 2.41023 10.3049C2.38666 9.73714 2.32425 9.30991 2.27584 9.05262C2.24718 8.89539 2.15865 8.76436 2.03892 8.70242C1.91854 8.63968 1.78034 8.65318 1.66951 8.73815C1.43386 8.91842 1.3154 9.00974 1.03198 8.57695C0.863203 8.32125 0.807792 8.16878 1.03198 7.87734C1.03835 7.8686 1.04408 7.85987 1.04981 7.85034L1.22878 7.52475C1.32304 7.35561 1.32559 7.13485 1.23579 6.96491C1.09185 6.68617 0.758114 5.96671 0.758114 5.31157C0.758114 4.9169 0.793781 4.54446 0.865113 4.20379C0.888679 4.09103 0.833905 3.97588 0.743466 3.9465C0.653026 3.91791 0.560676 3.98541 0.537111 4.09817C0.45941 4.47379 0.419922 4.88196 0.419922 5.31237C0.419922 6.05168 0.753019 6.80847 0.952368 7.19599C0.96638 7.22299 0.96638 7.25793 0.950458 7.28573L0.778495 7.5994C0.335851 8.18704 0.640925 8.64842 0.770852 8.84615C1.20522 9.50923 1.52812 9.34406 1.84785 9.09947C1.87332 9.07962 1.89689 9.08756 1.90835 9.09312C1.91982 9.09868 1.93956 9.11377 1.94593 9.1495C1.99115 9.39091 2.04974 9.79194 2.07203 10.3295C2.08859 10.7067 2.33635 11.0022 2.63569 11.0022H6.33097C6.63031 11.0022 6.87743 10.7067 6.89462 10.3288C6.91691 9.79114 6.97551 9.39091 7.02137 9.14871C7.02773 9.11456 7.04748 9.09947 7.05894 9.09391C7.07104 9.08756 7.09397 9.08041 7.12009 9.10027C7.43981 9.34485 7.76271 9.51003 8.19644 8.84774C8.32701 8.65001 8.63208 8.18863 8.18944 7.60099L8.01684 7.28652C8.00219 7.25952 8.00155 7.22538 8.01684 7.19599C8.21555 6.81085 8.54865 6.05406 8.54865 5.31475L8.5461 5.31157Z" fill="#F1EAEF"/>
<path d="M2.4149 5.14922C2.29198 5.01899 2.12511 4.9904 1.97863 5.07458C1.83214 5.15875 1.7417 5.33584 1.7417 5.53675V6.34833C1.7417 7.14482 2.26141 7.79202 2.89958 7.79202H3.79442C3.96766 7.79202 4.11796 7.66099 4.17783 7.45849C4.2377 7.25599 4.19121 7.03444 4.05937 6.89467L2.4149 5.14922ZM3.86002 7.31317C3.85365 7.33461 3.83709 7.37035 3.79442 7.37035H2.89958C2.44802 7.37035 2.08053 6.91214 2.08053 6.34912V5.53754C2.08053 5.4891 2.106 5.46687 2.12129 5.45813C2.1283 5.45416 2.13912 5.4494 2.15186 5.4494C2.16524 5.4494 2.18052 5.45416 2.19581 5.47084L3.84028 7.21629C3.87276 7.25044 3.86703 7.29173 3.86066 7.31238L3.86002 7.31317Z" fill="#F1EAEF"/>
<path d="M4.78651 7.45849C4.84637 7.66099 4.99668 7.79202 5.16992 7.79202H6.06476C6.70357 7.79202 7.22264 7.14403 7.22264 6.34833V5.53675C7.22264 5.33584 7.13156 5.15875 6.98571 5.07458C6.83923 4.9904 6.67236 5.01899 6.54944 5.14922L4.90497 6.89467C4.77313 7.03444 4.72664 7.25599 4.78651 7.45849ZM5.1247 7.21629L6.76917 5.47084C6.78445 5.45416 6.79974 5.4494 6.81311 5.4494C6.82585 5.4494 6.83604 5.45416 6.84368 5.45813C6.85897 5.46687 6.88445 5.4891 6.88445 5.53754V6.34912C6.88445 6.91214 6.51696 7.37035 6.0654 7.37035H5.17055C5.12788 7.37035 5.11132 7.33461 5.10495 7.31317C5.09859 7.29173 5.09285 7.25123 5.12533 7.21629H5.1247Z" fill="#F1EAEF"/>
<path d="M0.71267 0.00532749C0.571279 -0.0224663 0.434346 0.060121 0.365561 0.214972C-0.645833 2.48057 0.763622 3.7027 0.777633 3.71461C0.805657 3.73843 0.838776 3.75035 0.872531 3.75035C1.34256 3.75035 1.7126 3.57405 1.97309 3.22703C2.40236 2.65606 2.36415 1.83495 2.36223 1.80081C2.35905 1.74284 2.3374 1.68963 2.30173 1.65231C2.26606 1.61499 2.22021 1.59831 2.17371 1.60466C1.54255 1.69519 1.14385 1.26796 0.991631 0.334089C0.962971 0.161767 0.854061 0.0323272 0.71267 0.00532749ZM2.01767 2.03904C2.00048 2.2741 1.93806 2.65765 1.72343 2.94115C1.53873 3.18573 1.27123 3.31517 0.926031 3.32788C0.723497 3.12776 -0.115297 2.15736 0.658534 0.419058C0.828585 1.46014 1.31836 2.03904 2.0164 2.03904H2.01767Z" fill="#F1EAEF"/>
<path d="M8.63369 0.215206C8.56427 0.0603551 8.42797 -0.0230263 8.28594 0.0055616C8.14455 0.0325613 8.03501 0.162795 8.00698 0.335911C7.8554 1.26978 7.45734 1.69781 6.82617 1.60569C6.77777 1.59854 6.73 1.6176 6.69434 1.6581C6.65803 1.6986 6.63765 1.75578 6.63765 1.81613V1.83519C6.63447 1.97892 6.63765 2.71983 7.03508 3.23917C7.28665 3.56714 7.63822 3.73946 8.0815 3.74979C8.09678 3.75137 8.11271 3.75217 8.12799 3.75217C8.16175 3.75217 8.19487 3.73946 8.22289 3.71643C8.2369 3.70452 9.64636 2.48239 8.63369 0.216795V0.215206ZM8.07513 3.32653C7.73184 3.31541 7.46498 3.18756 7.28028 2.94615C7.06183 2.66106 6.99877 2.27751 6.98221 2.03928C7.68025 2.03928 8.16939 1.46116 8.33753 0.420881C9.112 2.15283 8.28021 3.12323 8.07449 3.32653H8.07513Z" fill="#F1EAEF"/>
</svg>
