<svg width="11" height="10" viewBox="0 0 11 10" fill="none" xmlns="http://www.w3.org/2000/svg">
<path d="M6.53125 3.4375C4.82453 3.4375 3.4375 4.69999 3.4375 6.25C3.4375 6.52031 3.48047 6.78124 3.55954 7.02969C3.57672 7.03125 3.59219 7.03125 3.60938 7.03125C3.89468 7.03125 4.16281 6.975 4.40516 6.87187C4.33468 6.67656 4.29688 6.46719 4.29688 6.25C4.29688 5.12968 5.29891 4.21875 6.53125 4.21875C7.76359 4.21875 8.76562 5.12968 8.76562 6.25C8.76562 7.37031 7.76359 8.28125 6.53125 8.28125C6.11187 8.28125 5.71828 8.175 5.38141 7.99063C5.09953 8.14531 4.79016 8.26406 4.46359 8.34063C5.01187 8.78906 5.73719 9.0625 6.53125 9.0625C8.23797 9.0625 9.625 7.8 9.625 6.25C9.625 4.69999 8.23797 3.4375 6.53125 3.4375Z" fill="#F1EAEF"/>
<path d="M0.862732 2.37442C0.878845 2.44751 0.949341 2.5 1.03125 2.5C1.11316 2.5 1.18365 2.44751 1.19977 2.37442L1.22092 2.27844C1.30627 1.89056 1.57835 1.56662 1.9675 1.38977C2.02574 1.36322 2.0625 1.3092 2.0625 1.25C2.0625 1.1908 2.02574 1.13678 1.9675 1.11023C1.57835 0.93338 1.30627 0.609436 1.22092 0.221558L1.19977 0.12558C1.18365 0.0524902 1.11316 0 1.03125 0C0.949341 0 0.878845 0.0524902 0.862732 0.12558L0.841583 0.221558C0.756233 0.609436 0.484154 0.93338 0.0950012 1.11023C0.0367584 1.13678 0 1.1908 0 1.25C0 1.3092 0.0367584 1.36322 0.0950012 1.38977C0.484154 1.56662 0.756233 1.89056 0.841583 2.27844L0.862732 2.37442Z" fill="#F1EAEF"/>
<path d="M10.905 8.61023C10.5158 8.43338 10.2438 8.10944 10.1584 7.72156L10.1373 7.62558C10.1212 7.55249 10.0507 7.5 9.96875 7.5C9.88684 7.5 9.81635 7.55249 9.80023 7.62558L9.77908 7.72156C9.69373 8.10944 9.42165 8.43338 9.0325 8.61023C8.97426 8.63678 8.9375 8.6908 8.9375 8.75C8.9375 8.8092 8.97426 8.86322 9.0325 8.88977C9.42165 9.06662 9.69373 9.39056 9.77908 9.77844L9.80023 9.87442C9.81635 9.94751 9.88684 10 9.96875 10C10.0507 10 10.1212 9.94751 10.1373 9.87442L10.1584 9.77844C10.2438 9.39056 10.5158 9.06662 10.905 8.88977C10.9632 8.86322 11 8.8092 11 8.75C11 8.6908 10.9632 8.63678 10.905 8.61023Z" fill="#F1EAEF"/>
<path d="M6.70312 5.3125C6.70312 5.04218 6.66016 4.78125 6.58109 4.53281C6.56563 4.53125 6.54843 4.53125 6.53125 4.53125C6.24765 4.53125 5.97782 4.58906 5.73547 4.69062C5.80594 4.88593 5.84375 5.09531 5.84375 5.3125C5.84375 6.43281 4.84172 7.34375 3.60938 7.34375C2.37703 7.34375 1.375 6.43281 1.375 5.3125C1.375 4.19218 2.37703 3.28125 3.60938 3.28125C4.02875 3.28125 4.42406 3.3875 4.76094 3.57344C5.04282 3.41719 5.35219 3.29844 5.67875 3.225C5.13046 2.775 4.40344 2.5 3.60938 2.5C1.90266 2.5 0.515625 3.76249 0.515625 5.3125C0.515625 6.8625 1.90266 8.125 3.60938 8.125C5.31609 8.125 6.70312 6.8625 6.70312 5.3125Z" fill="#F1EAEF"/>
<path d="M4.45008 0.867186C4.42257 0.814056 4.36242 0.78125 4.29711 0.78125H2.92211C2.85679 0.78125 2.79664 0.814056 2.76914 0.867186L2.47266 1.40625H4.74657L4.45008 0.867186Z" fill="#F1EAEF"/>
<path d="M3.60929 2.1875C3.7932 2.1875 3.97367 2.20156 4.15241 2.22813L4.71273 1.71875H2.50586L3.06445 2.22656C3.24148 2.20156 3.42367 2.1875 3.60929 2.1875Z" fill="#F1EAEF"/>
<path d="M5.84375 2.8125C5.93867 2.8125 6.01562 2.74261 6.01562 2.65625V2.1875C6.01562 2.10114 5.93867 2.03125 5.84375 2.03125C5.74883 2.03125 5.67188 2.10114 5.67188 2.1875V2.65625C5.67188 2.74261 5.74883 2.8125 5.84375 2.8125Z" fill="#F1EAEF"/>
<path d="M6.53148 3.12496C6.55725 3.12496 6.58352 3.11962 6.60819 3.10849L6.95194 2.95224C7.03687 2.91363 7.07128 2.81979 7.02881 2.74258C6.98643 2.66552 6.88329 2.63424 6.79819 2.67269L6.45444 2.82894C6.36951 2.86755 6.3351 2.96139 6.37757 3.0386C6.4077 3.09338 6.46837 3.12496 6.53148 3.12496Z" fill="#F1EAEF"/>
</svg>
