<svg width="10" height="10" viewBox="0 0 10 10" fill="none" xmlns="http://www.w3.org/2000/svg">
<path d="M2.90707 1.28063C3.27585 1.2178 3.65403 1.23853 4.01373 1.34129C4.37343 1.44405 4.70548 1.62623 4.98541 1.87438L5.00082 1.88813L5.01499 1.87563C5.28216 1.64118 5.59625 1.46638 5.93631 1.36292C6.27638 1.25946 6.6346 1.2297 6.98707 1.27563L7.08957 1.29063C7.53387 1.36735 7.94915 1.56278 8.29143 1.85625C8.63372 2.14971 8.89027 2.53028 9.03393 2.95765C9.17758 3.38502 9.20298 3.84328 9.10745 4.28391C9.01191 4.72454 8.79899 5.13114 8.49124 5.46063L8.41624 5.53772L8.39624 5.5548L5.29207 8.62938C5.22044 8.70028 5.12553 8.74282 5.02494 8.7491C4.92435 8.75538 4.82489 8.72499 4.74499 8.66355L4.70582 8.62938L1.58374 5.53688C1.253 5.21507 1.01778 4.808 0.904141 4.36075C0.790499 3.91349 0.802866 3.44351 0.939874 3.00285C1.07688 2.56219 1.33318 2.16805 1.68039 1.86408C2.0276 1.56011 2.45217 1.35818 2.90707 1.28063Z" fill="#F7F4F7"/>
</svg>
