<svg width="7" height="10" viewBox="0 0 7 10" fill="none" xmlns="http://www.w3.org/2000/svg">
<path d="M6.93451 2.69531C6.89085 2.19531 6.49792 1.80469 6.02495 1.79688C5.98129 1.79688 5.94491 1.79688 5.90125 1.80469C5.90125 1.78906 5.90125 1.77344 5.90125 1.75781C5.90125 1.14062 5.42827 0.625 4.83888 0.625C4.81705 0.625 4.78794 0.625 4.76611 0.625C4.52599 0.234375 4.11123 0 3.66736 0C3.19439 0 2.76507 0.265625 2.52495 0.695312C2.40852 0.648437 2.28482 0.625 2.16112 0.625C1.57173 0.625 1.09875 1.14062 1.09875 1.76562C1.09875 1.78125 1.09875 1.79688 1.09875 1.8125C1.06237 1.80469 1.01871 1.80469 0.975052 1.80469C0.502079 1.80469 0.109148 2.19531 0.0654885 2.70312H0L1.0842 10H5.9158L7 2.69531H6.93451ZM0.982329 2.11719C1.06965 2.11719 1.14969 2.13281 1.22973 2.17188L1.51351 2.30469L1.4262 1.98438C1.40437 1.91406 1.39709 1.84375 1.39709 1.76562C1.39709 1.3125 1.73909 0.945312 2.16112 0.945312C2.28482 0.945312 2.40852 0.976562 2.51767 1.03906L2.65593 1.11719L2.72141 0.960938C2.88877 0.570312 3.25988 0.3125 3.66736 0.3125C4.03846 0.3125 4.38773 0.53125 4.56965 0.875L4.62058 0.976562L4.72245 0.953125C4.75884 0.945312 4.8025 0.945312 4.83888 0.945312C5.26091 0.945312 5.60291 1.3125 5.60291 1.76562C5.60291 1.84375 5.59563 1.91406 5.5738 1.98438L5.48649 2.30469L5.77027 2.17188C5.85031 2.14062 5.93035 2.11719 6.0104 2.11719C6.32329 2.11719 6.58524 2.375 6.6289 2.69531H0.363825C0.407484 2.375 0.669439 2.11719 0.982329 2.11719ZM3.23805 4.64062C2.72869 4.66406 2.27027 4.77344 1.89189 4.94531L1.70998 3.02344H3.23805V4.64062ZM5.04262 3.01562L4.91892 4.85938C4.52599 4.71875 4.05301 4.63281 3.53638 4.63281V3.01562H5.04262ZM1.3316 9.67969L0.349272 3.01562H1.41892L1.60811 5.08594C1.17879 5.34375 0.924116 5.6875 0.924116 6.07031C0.924116 6.50781 1.25884 6.89844 1.7973 7.16406L2.03015 9.6875H1.3316V9.67969ZM3.23805 9.67969H2.33576L2.11019 7.28906C2.43763 7.40625 2.82328 7.48438 3.23805 7.5V9.67969ZM1.22245 6.07031C1.22245 5.46094 2.26299 4.94531 3.5 4.94531C4.73701 4.94531 5.77755 5.46094 5.77755 6.07031C5.77755 6.67969 4.73701 7.19531 3.5 7.19531C2.26299 7.19531 1.22245 6.67969 1.22245 6.07031ZM4.57692 9.67969H3.53638V7.50781C3.98025 7.50781 4.38773 7.44531 4.74428 7.33594L4.57692 9.67969ZM5.6684 9.67969H4.87526L5.04262 7.22656C5.6684 6.96875 6.06861 6.54687 6.06861 6.07031C6.06861 5.63281 5.73389 5.24219 5.19543 4.98438L5.33368 3.01562H6.65073L5.6684 9.67969Z" fill="white"/>
</svg>
