<svg width="9" height="10" viewBox="0 0 9 10" fill="none" xmlns="http://www.w3.org/2000/svg">
<path d="M7.8531 1.14887C7.80437 1.14887 7.75616 1.15189 7.70868 1.15764C7.65001 0.509863 7.08772 0 6.40462 0H2.25472C1.5327 0 0.94529 0.569512 0.94529 1.26953V2.13854C0.391843 2.35465 0 2.88029 0 3.4933C0 3.90051 0.202721 4.29436 0.657316 4.77031C0.753146 4.87064 0.849661 4.96881 0.94529 5.06385V8.73047C0.94529 9.43049 1.5327 10 2.25472 10H6.40462C7.12664 10 7.71406 9.43049 7.71406 8.73047V3.98246C7.93223 3.78943 8.22778 3.5167 8.51476 3.21621C8.85034 2.86486 9 2.5702 9 2.2608C9 1.64768 8.48551 1.14887 7.8531 1.14887ZM1.10077 4.37219C0.757457 4.01273 0.604354 3.74168 0.604354 3.49328C0.604354 3.01123 1.00885 2.61906 1.50607 2.61906C1.78919 2.61906 2.05043 2.74447 2.22283 2.96313L2.4629 3.26758L2.70297 2.96313C2.87538 2.74447 3.13662 2.61906 3.41974 2.61906C3.91694 2.61906 4.32143 3.01123 4.32143 3.49328C4.32143 3.74168 4.16833 4.01273 3.82504 4.37219C3.29728 4.92479 2.74689 5.40996 2.46288 5.65238C2.17904 5.41018 1.62914 4.92545 1.10077 4.37219ZM2.25472 9.41406C1.86594 9.41406 1.54964 9.1074 1.54964 8.73047V8.0143H3.21982C3.08529 8.21506 3.0068 8.4542 3.0068 8.71094C3.0068 8.97043 3.08694 9.21199 3.22413 9.41406H2.25472ZM4.32967 9.40756C3.93348 9.40756 3.61116 9.09504 3.61116 8.71092C3.61116 8.3268 3.93348 8.0143 4.32967 8.0143C4.72587 8.0143 5.04821 8.32682 5.04821 8.71094C5.04821 9.09506 4.72587 9.40756 4.32967 9.40756ZM7.1097 8.73047C7.1097 9.1074 6.7934 9.41406 6.40462 9.41406H5.43524C5.57243 9.21197 5.65256 8.97041 5.65256 8.71092C5.65256 8.4542 5.57406 8.21506 5.43955 8.0143H7.1097V8.73047ZM7.1097 7.42836H1.54964V5.63828C1.94977 6.00318 2.46294 6.42271 2.46294 6.42271C2.46294 6.42271 3.51651 5.55766 4.26847 4.77029C4.72305 4.29432 4.92579 3.90047 4.92579 3.49328C4.92579 2.68814 4.25018 2.03312 3.41974 2.03312C3.06422 2.03312 2.72942 2.15139 2.4629 2.36508C2.2073 2.16014 1.88887 2.0433 1.54964 2.03402V1.26953C1.54964 0.892598 1.86594 0.585938 2.25472 0.585938H6.40462C6.7934 0.585938 7.1097 0.893555 7.1097 1.31197C6.93222 1.20619 6.72634 1.14887 6.51038 1.14887C5.87799 1.14887 5.3635 1.64768 5.3635 2.2608C5.3635 2.5702 5.51314 2.86484 5.84872 3.21621C6.38035 3.77285 7.1097 4.3717 7.1097 4.3717V7.42836ZM8.07133 2.81811C7.73678 3.16838 7.39052 3.47869 7.18178 3.659C6.97282 3.4785 6.62618 3.16785 6.29217 2.81811C6.00148 2.51373 5.96786 2.35428 5.96786 2.2608C5.96786 1.97076 6.21123 1.7348 6.51038 1.7348C6.68069 1.7348 6.8379 1.81027 6.94167 1.94189L7.18174 2.24633L7.42181 1.94189C7.52558 1.81027 7.68279 1.7348 7.8531 1.7348C8.15227 1.7348 8.39565 1.97076 8.39565 2.2608C8.39565 2.35428 8.36202 2.51375 8.07133 2.81811Z" fill="white"/>
</svg>
