<svg width="10" height="10" viewBox="0 0 10 10" fill="none" xmlns="http://www.w3.org/2000/svg">
<path d="M5 0.124512C4.30987 0.124512 3.75 0.67046 3.75 1.34342C3.75 2.01638 4.30987 2.56232 5 2.56232C5.69012 2.56232 6.25 2.01638 6.25 1.34342C6.25 0.67046 5.69012 0.124512 5 0.124512ZM5 1.74968C4.7705 1.74968 4.58337 1.56709 4.58337 1.34342C4.58337 1.11975 4.7705 0.937156 5 0.937156C5.2295 0.937156 5.41662 1.11975 5.41662 1.34342C5.41662 1.56709 5.2295 1.74968 5 1.74968Z" fill="white"/>
<path d="M6.24988 2.96875C6.71013 2.96875 7.08325 3.33211 7.08325 3.78139V4.18766H2.9165V3.78139C2.9165 3.33259 3.28963 2.96875 3.74988 2.96875H6.24988Z" fill="white"/>
<path d="M2.0835 5.8125C1.39337 5.8125 0.833496 6.35857 0.833496 7.03141C0.833496 7.70436 1.39337 8.25031 2.0835 8.25031C2.77362 8.25031 3.33349 7.70436 3.33349 7.03141C3.33349 6.35857 2.77362 5.8125 2.0835 5.8125ZM2.0835 7.43779C1.854 7.43779 1.66675 7.25568 1.66675 7.03141C1.66675 6.80737 1.854 6.62527 2.0835 6.62527C2.31299 6.62527 2.50012 6.80737 2.50012 7.03141C2.50012 7.25568 2.31299 7.43779 2.0835 7.43779Z" fill="white"/>
<path d="M3.33337 8.65674C3.79362 8.65674 4.16662 9.02022 4.16662 9.46938V9.87564H0V9.46938C0 9.02046 0.373125 8.65674 0.833374 8.65674H3.33337Z" fill="white"/>
<path d="M6.62744 2.23355C7.40507 2.74464 7.91657 3.61079 7.91657 4.59396C7.91657 4.80581 7.89094 5.0118 7.84582 5.21048C7.86982 5.20926 7.89219 5.20329 7.91657 5.20329C8.18357 5.20329 8.43657 5.25973 8.66656 5.35809C8.72019 5.11175 8.74981 4.85627 8.74981 4.59408C8.74981 3.23793 7.99094 2.05717 6.86632 1.42578C6.85282 1.71905 6.76707 1.99196 6.62744 2.23355Z" fill="white"/>
<path d="M2.08337 5.20329C2.10775 5.20329 2.13012 5.20926 2.15412 5.21048C2.109 5.0118 2.08337 4.80581 2.08337 4.59396C2.08337 3.61079 2.59487 2.74415 3.3725 2.23355C3.2325 1.99196 3.147 1.71893 3.13362 1.42529C2.00887 2.05656 1.25 3.23781 1.25 4.59396C1.25 4.85627 1.27925 5.11175 1.33337 5.35809C1.56337 5.25973 1.81637 5.20329 2.08337 5.20329Z" fill="white"/>
<path d="M6.06308 7.23975C5.73346 7.3659 5.37546 7.43782 4.99984 7.43782C4.62421 7.43782 4.26659 7.3659 3.93659 7.24023C3.90359 7.51948 3.81084 7.78021 3.66309 8.0068C4.07846 8.16197 4.52821 8.25034 4.99971 8.25034C5.47121 8.25034 5.92046 8.16197 6.33633 8.0068C6.18883 7.78021 6.09608 7.51948 6.06308 7.23975Z" fill="white"/>
<path d="M7.9165 5.8125C7.22638 5.8125 6.6665 6.35857 6.6665 7.03141C6.6665 7.70436 7.22638 8.25031 7.9165 8.25031C8.60663 8.25031 9.1665 7.70436 9.1665 7.03141C9.1665 6.35857 8.60663 5.8125 7.9165 5.8125ZM7.9165 7.43779C7.68663 7.43779 7.49988 7.25568 7.49988 7.03141C7.49988 6.80737 7.68663 6.62527 7.9165 6.62527C8.1465 6.62527 8.33325 6.80737 8.33325 7.03141C8.33325 7.25568 8.1465 7.43779 7.9165 7.43779Z" fill="white"/>
<path d="M9.16674 8.65674C9.62699 8.65674 10.0001 9.02022 10.0001 9.46938V9.87564H5.8335V9.46938C5.8335 9.02046 6.2065 8.65674 6.66675 8.65674H9.16674Z" fill="white"/>
</svg>
