<svg width="11" height="10" viewBox="0 0 11 10" fill="none" xmlns="http://www.w3.org/2000/svg">
<path d="M5.5 9.60851C7.98528 9.60851 10 7.54512 10 4.99981C10 2.4545 7.98528 0.391113 5.5 0.391113C3.01472 0.391113 1 2.4545 1 4.99981C1 7.54512 3.01472 9.60851 5.5 9.60851Z" fill="#793C71" fill-opacity="0.37" stroke="#F1EAEF" stroke-width="0.4" stroke-miterlimit="10" stroke-linecap="round" stroke-linejoin="round"/>
<path d="M5.50098 2.09229C7.06153 2.09242 8.33496 3.38945 8.33496 4.99951C8.33486 6.60948 7.06147 7.9066 5.50098 7.90674C3.94037 7.90674 2.6671 6.60956 2.66699 4.99951C2.66699 3.38937 3.94031 2.09229 5.50098 2.09229Z" fill="#793C71" fill-opacity="0.37" stroke="#F1EAEF" stroke-width="0.4"/>
<path d="M5.2858 1.90088C3.71114 2.01442 2.4668 3.35833 2.4668 5.00115C2.4668 5.13322 2.47585 5.26066 2.48942 5.3881" fill="#793C71" fill-opacity="0.37"/>
<path d="M5.2858 1.90088C3.71114 2.01442 2.4668 3.35833 2.4668 5.00115C2.4668 5.13322 2.47585 5.26066 2.48942 5.3881" stroke="#F1EAEF" stroke-width="0.4" stroke-miterlimit="10" stroke-linecap="round" stroke-linejoin="round"/>
<path d="M8.20746 3.59691C8.04004 3.25861 7.81153 2.95508 7.54004 2.7002L8.20746 3.59691Z" fill="#793C71" fill-opacity="0.37"/>
<path d="M8.20746 3.59691C8.04004 3.25861 7.81153 2.95508 7.54004 2.7002" stroke="#F1EAEF" stroke-width="0.4" stroke-miterlimit="10" stroke-linecap="round" stroke-linejoin="round"/>
<path d="M5.22217 8.09466C5.31493 8.10392 5.40769 8.10856 5.50045 8.10856C7.17692 8.10856 8.53438 6.7183 8.53438 5.00134C8.53438 4.91561 8.52986 4.82756 8.52307 4.74414" fill="#793C71" fill-opacity="0.37"/>
<path d="M5.22217 8.09466C5.31493 8.10392 5.40769 8.10856 5.50045 8.10856C7.17692 8.10856 8.53438 6.7183 8.53438 5.00134C8.53438 4.91561 8.52986 4.82756 8.52307 4.74414" stroke="#F1EAEF" stroke-width="0.4" stroke-miterlimit="10" stroke-linecap="round" stroke-linejoin="round"/>
<path d="M2.93701 6.66455C3.18136 7.06077 3.51167 7.39443 3.89855 7.64236L2.93701 6.66455Z" fill="#793C71" fill-opacity="0.37"/>
<path d="M2.93701 6.66455C3.18136 7.06077 3.51167 7.39443 3.89855 7.64236" stroke="#F1EAEF" stroke-width="0.4" stroke-miterlimit="10" stroke-linecap="round" stroke-linejoin="round"/>
<path d="M3.15647 9.31683C3.29674 9.46049 3.52299 9.46049 3.66326 9.31683L5.44154 7.49559L4.93475 6.97656L3.15647 8.7978C3.0162 8.94146 3.0162 9.17548 3.15647 9.31683Z" fill="#793C71" fill-opacity="0.37" stroke="#F1EAEF" stroke-width="0.4" stroke-miterlimit="10" stroke-linecap="round" stroke-linejoin="round"/>
<path d="M5.44143 7.49516L4.69482 6.73052C5.01157 6.33429 5.34641 5.95429 5.71519 5.60904C6.07718 5.27075 6.48215 4.99038 6.89618 4.71928C7.5636 4.28367 8.2446 3.91293 9.03193 3.76696L9.09528 3.75537L5.44143 7.49516Z" fill="#793C71" fill-opacity="0.37" stroke="#F1EAEF" stroke-width="0.4" stroke-miterlimit="10" stroke-linecap="round" stroke-linejoin="round"/>
<path d="M7.49336 2.05909C7.43228 1.99653 7.33273 1.99653 7.27391 2.05909L6.30558 3.05081C6.24223 3.11569 6.14042 3.11569 6.07707 3.05081C6.01373 2.98593 6.01373 2.88166 6.07707 2.81678L7.0454 1.82507C7.10649 1.7625 7.10649 1.66055 7.0454 1.60031L7.04314 1.59799C6.98205 1.53543 6.8825 1.53543 6.82368 1.59799L5.85535 2.58971C5.79201 2.65458 5.6902 2.65458 5.62685 2.58971C5.5635 2.52483 5.5635 2.42056 5.62685 2.35568L6.59517 1.36396C6.65626 1.3014 6.65626 1.19945 6.59517 1.13921C6.53409 1.07664 6.43454 1.07664 6.37572 1.13921L5.09291 2.45068C4.84404 2.70556 4.79427 3.0902 4.95038 3.39605L1.30784 7.02462C1.18341 7.14743 1.18115 7.35133 1.30558 7.47877C1.42775 7.60389 1.62685 7.60389 1.74902 7.47645L5.29201 3.74594C5.59065 3.9035 5.96621 3.85484 6.21508 3.59996L7.49563 2.28848C7.55445 2.22129 7.55445 2.12165 7.49336 2.05909Z" fill="#793C71" fill-opacity="0.37" stroke="#F1EAEF" stroke-width="0.4" stroke-miterlimit="10" stroke-linecap="round" stroke-linejoin="round"/>
</svg>
