<svg width="12" height="10" viewBox="0 0 12 10" fill="none" xmlns="http://www.w3.org/2000/svg">
<path d="M3.83498 4.14571L1.75697 4.92337C1.61141 4.97776 1.44897 4.87458 1.44897 4.72842V3.21003C1.44897 3.09404 1.34856 3 1.22448 3C1.1004 3 1 3.09404 1 3.21003V4.72842C1 5.16602 1.48903 5.47545 1.92358 5.31348L4.00159 4.53582C4.11668 4.49265 4.1728 4.37051 4.12676 4.26273C4.08073 4.15504 3.94897 4.10305 3.83498 4.14571Z" fill="#F1EAEF"/>
<path d="M10.9184 3C10.7943 3 10.6939 3.09403 10.6939 3.21V4.72815C10.6939 4.87487 10.5314 4.97746 10.3859 4.92309L8.30788 4.14555C8.19344 4.10279 8.06213 4.15488 8.01609 4.26254C7.97006 4.37031 8.02618 4.49243 8.14127 4.5356C8.14127 4.5356 10.2184 5.31282 10.2193 5.31314C10.6547 5.47607 11.1429 5.16547 11.1429 4.72817V3.21C11.1429 3.09403 11.0425 3 10.9184 3Z" fill="#F1EAEF"/>
<path d="M11.6808 0.652628C11.4921 0.500934 11.2453 0.451181 11.0126 0.561166L7.12019 2.41148C7.00139 2.13265 6.76049 1.9392 6.48 1.9392H5.52C5.23951 1.9392 4.99862 2.13265 4.87982 2.41148L0.987422 0.561166C0.765 0.455602 0.514219 0.48819 0.316171 0.647232C0.118123 0.80655 0 1.07143 0 1.35567V5.94529C0 6.53999 0.522247 6.96003 0.987422 6.7398L4.71691 4.96694L2.88703 7.87773C2.82914 7.96951 2.82328 8.09346 2.87203 8.19247C2.92055 8.29121 3.01312 8.34608 3.11016 8.33132L4.35469 8.13942C4.35469 8.13942 5.08378 9.35381 5.08453 9.35506C5.13982 9.44713 5.23953 9.49229 5.33227 9.46773C5.42649 9.44266 5.49891 9.35311 5.51625 9.24031L5.95959 6.34072L6.31453 9.25577C6.32813 9.36927 6.39774 9.46174 6.49103 9.49085C6.58456 9.51992 6.68209 9.47807 6.74203 9.38905L7.50891 8.20682L8.74687 8.45249C8.8425 8.47101 8.93742 8.4206 8.98922 8.32381C9.04078 8.22702 9.03867 8.1028 8.98359 8.00865L7.18017 4.91801L11.0126 6.73981C11.2329 6.84446 11.4873 6.8116 11.6838 6.65374C11.8819 6.49442 12 6.22954 12 5.9453V1.35568C12 1.05795 11.8695 0.804323 11.6808 0.652628ZM0.809297 6.21004C0.653614 6.28402 0.48 6.14395 0.48 5.94529V1.35576C0.48 1.16064 0.656734 1.01827 0.809297 1.09093L4.8 2.988V4.31297C4.8 4.31297 0.819477 6.2052 0.809297 6.21004ZM5.14547 8.47421L4.66195 7.66884C4.61039 7.58319 4.5232 7.53849 4.43554 7.55172L3.61125 7.67887L5.14761 5.23476C5.25662 5.31375 5.38324 5.36177 5.52 5.36177H5.62119L5.14547 8.47421ZM5.52 4.79134C5.38758 4.79134 5.28 4.66336 5.28 4.50613V2.79484C5.28 2.63761 5.38758 2.50962 5.52 2.50962H6.48C6.61242 2.50962 6.72 2.63761 6.72 2.79484V4.50613C6.72 4.66336 6.61242 4.79134 6.48 4.79134H5.52ZM8.26547 7.77858L7.44609 7.61606C7.35726 7.59851 7.27054 7.63987 7.2164 7.72329L6.70828 8.5068L6.32518 5.36177H6.48C6.59574 5.36177 6.70364 5.32609 6.80062 5.26819L8.26547 7.77858ZM11.52 5.94529C11.52 6.14235 11.3441 6.28308 11.1907 6.21004L7.2 4.31297V2.988C7.2 2.988 11.1774 1.09725 11.1907 1.09095C11.3465 1.01688 11.52 1.15696 11.52 1.35567V5.94529Z" fill="#F1EAEF"/>
</svg>
