<svg width="24" height="26" viewBox="0 0 24 26" fill="none" xmlns="http://www.w3.org/2000/svg">
<path d="M10.5 22.5H7.5C7.224 22.5 7 22.724 7 23C7 23.276 7.224 23.5 7.5 23.5H10.5C10.776 23.5 11 23.276 11 23C11 22.724 10.776 22.5 10.5 22.5Z" fill="#675B78"/>
<path d="M22.086 5.5H22.083L17.5 5.53V2.29C17.5 1.303 16.697 0.5 15.71 0.5H2.29C1.303 0.5 0.5 1.303 0.5 2.29V23.71C0.5 24.697 1.303 25.5 2.29 25.5H15.71C16.697 25.5 17.5 24.697 17.5 23.71V16.467L22.086 16.414C22.866 16.414 23.5 15.78 23.5 15V6.914C23.5 6.134 22.866 5.5 22.086 5.5ZM11.191 1.5L10.691 2.5H7.309L6.809 1.5H11.191ZM16.5 23.71C16.5 24.146 16.146 24.5 15.71 24.5H2.29C1.854 24.5 1.5 24.146 1.5 23.71V2.29C1.5 1.854 1.854 1.5 2.29 1.5H5.691L6.553 3.224C6.638 3.393 6.811 3.5 7 3.5H11C11.189 3.5 11.362 3.393 11.447 3.224L12.309 1.5H15.71C16.146 1.5 16.5 1.854 16.5 2.29V5.537L9 5.586C8.22 5.586 7.586 6.22 7.586 7V15.086C7.586 15.866 8.22 16.5 9 16.5H10.586V19C10.586 19.194 10.698 19.371 10.874 19.453C10.941 19.485 11.014 19.5 11.086 19.5C11.201 19.5 11.315 19.46 11.406 19.384L14.869 16.498L16.499 16.479L16.5 23.71ZM22.5 15C22.5 15.229 22.314 15.414 22.08 15.414L14.68 15.5C14.565 15.501 14.454 15.542 14.366 15.616L11.586 17.933V16C11.586 15.724 11.362 15.5 11.086 15.5H9C8.771 15.5 8.586 15.314 8.586 15.086V7C8.586 6.771 8.772 6.586 9.003 6.586L22.087 6.5C22.315 6.5 22.5 6.686 22.5 6.914V15Z" fill="#675B78" stroke="#675B78" stroke-width="0.5"/>
<path d="M10.5 9H13C13.276 9 13.5 8.776 13.5 8.5C13.5 8.224 13.276 8 13 8H10.5C10.224 8 10 8.224 10 8.5C10 8.776 10.224 9 10.5 9Z" fill="#675B78"/>
<path d="M17.5 11H20.5C20.776 11 21 10.776 21 10.5C21 10.224 20.776 10 20.5 10H17.5C17.224 10 17 10.224 17 10.5C17 10.776 17.224 11 17.5 11Z" fill="#675B78"/>
<path d="M20.5 8H14.5C14.224 8 14 8.224 14 8.5C14 8.776 14.224 9 14.5 9H20.5C20.776 9 21 8.776 21 8.5C21 8.224 20.776 8 20.5 8Z" fill="#675B78"/>
<path d="M16 10H10.5C10.224 10 10 10.224 10 10.5C10 10.776 10.224 11 10.5 11H16C16.276 11 16.5 10.776 16.5 10.5C16.5 10.224 16.276 10 16 10Z" fill="#675B78"/>
<path d="M10.5 13H13.5C13.776 13 14 12.776 14 12.5C14 12.224 13.776 12 13.5 12H10.5C10.224 12 10 12.224 10 12.5C10 12.776 10.224 13 10.5 13Z" fill="#675B78"/>
<path d="M20.5 12H15.5C15.224 12 15 12.224 15 12.5C15 12.776 15.224 13 15.5 13H20.5C20.776 13 21 12.776 21 12.5C21 12.224 20.776 12 20.5 12Z" fill="#675B78"/>
</svg>
