<svg width="25" height="24" viewBox="0 0 25 24" fill="none" xmlns="http://www.w3.org/2000/svg">
<path d="M12.7851 10.87C12.6851 10.86 12.5651 10.86 12.4551 10.87C10.0751 10.79 8.18506 8.84 8.18506 6.44C8.18506 3.99 10.1651 2 12.6251 2C15.0751 2 17.0651 3.99 17.0651 6.44C17.0551 8.84 15.1651 10.79 12.7851 10.87Z" fill="#FF63BB"/>
<path d="M7.78497 14.56C5.36497 16.18 5.36497 18.82 7.78497 20.43C10.535 22.27 15.045 22.27 17.795 20.43C20.215 18.81 20.215 16.17 17.795 14.56C15.055 12.73 10.545 12.73 7.78497 14.56Z" fill="#FF63BB"/>
</svg>
